REM MD5 cfd2fa750b81f49204700107245dd30d
FILE "One (Japan).bin" BINARY
  TRACK 01 MODE2/2352
    INDEX 01 00:00:00
  TRACK 02 AUDIO
    INDEX 00 05:49:56
    INDEX 01 05:51:56
  TRACK 03 AUDIO
    INDEX 00 06:42:06
    INDEX 01 06:44:06
  TRACK 04 AUDIO
    INDEX 00 08:42:04
    INDEX 01 08:44:04
  TRACK 05 AUDIO
    INDEX 00 09:14:65
    INDEX 01 09:16:65
REM LEADOUT 12:17:68
